<svg width="468" height="40" viewBox="0 0 468 40" fill="none" xmlns="http://www.w3.org/2000/svg">
<path d="M263.52 7.99978C263.278 7.98677 263.034 8.01349 262.8 8.07947C262.549 8.12302 262.306 8.20454 262.08 8.32009C261.863 8.40592 261.672 8.54322 261.52 8.72009C261.344 8.87147 261.206 9.06306 261.12 9.27947C261.04 9.51947 260.96 9.68009 260.88 9.92009C260.814 10.1541 260.787 10.3976 260.8 10.6404V29.3588C260.787 29.6016 260.814 29.8451 260.88 30.0791C260.96 30.3191 260.96 30.5597 261.12 30.7197C261.206 30.9361 261.344 31.1277 261.52 31.2791C261.687 31.4387 261.875 31.5734 262.08 31.6791L262.8 31.9197C263.034 31.9857 263.278 32.0124 263.52 31.9994H296.48C296.722 32.0124 296.966 31.9857 297.2 31.9197C297.451 31.8762 297.694 31.7947 297.92 31.6791C298.338 31.4745 298.675 31.1374 298.88 30.7198C298.96 30.4798 299.04 30.3191 299.12 30.0791C299.186 29.8451 299.213 29.6016 299.2 29.3588V10.6404C299.213 10.3977 299.186 10.1541 299.12 9.92011C299.04 9.68011 299.04 9.43948 298.88 9.27948C298.794 9.06307 298.656 8.87148 298.48 8.72011C298.313 8.56056 298.125 8.42584 297.92 8.32011L297.2 8.07948C296.966 8.0135 296.722 7.98679 296.48 7.99979L263.52 7.99978ZM276.956 14.0982C277.137 14.091 277.323 14.1229 277.5 14.192C277.677 14.261 277.842 14.3654 277.983 14.4982C278.112 14.6198 278.22 14.7627 278.298 14.9188C278.377 15.0749 278.425 15.241 278.441 15.4077C278.456 15.5745 278.439 15.7385 278.389 15.8905C278.34 16.0425 278.259 16.1794 278.152 16.2935C278.044 16.4075 277.913 16.4965 277.764 16.5553C277.616 16.6141 277.453 16.6416 277.286 16.6362C277.118 16.6309 276.95 16.5927 276.789 16.524C276.629 16.4553 276.479 16.3573 276.35 16.2356C276.221 16.114 276.114 15.9711 276.035 15.815C275.956 15.659 275.908 15.4928 275.892 15.3261C275.877 15.1594 275.894 14.9953 275.944 14.8433C275.993 14.6914 276.074 14.5544 276.181 14.4404C276.378 14.2316 276.653 14.1102 276.956 14.0982ZM291.192 17.1966C291.86 17.2506 292.488 17.5335 292.97 17.9973C293.453 18.4611 293.76 19.0774 293.841 19.7419C294.057 21.5339 293.089 22.8543 290.969 22.8543H288.28L288.456 24.2699H285.913L285.041 17.1981H290.696C290.861 17.1834 291.027 17.1829 291.192 17.1966ZM266.08 17.1982H274.568L274.815 19.1747L271.168 21.7263L271.2 22.006H275.159L275.44 24.2701H266.943L266.704 22.2951L270.359 19.7419L270.32 19.4623H266.351L266.08 17.1982ZM275.56 17.1982H284.056L284.928 24.27H276.423L275.56 17.1982ZM287.824 19.1825L288 20.87H290.695C290.808 20.8811 290.921 20.8665 291.027 20.8273C291.133 20.788 291.228 20.7252 291.306 20.6436C291.384 20.562 291.443 20.4638 291.477 20.3563C291.511 20.2488 291.521 20.1348 291.505 20.0231C291.496 19.9017 291.463 19.7833 291.407 19.6749C291.352 19.5665 291.275 19.4702 291.182 19.3919C291.089 19.3135 290.981 19.2547 290.865 19.2187C290.748 19.1827 290.626 19.1704 290.505 19.1825H287.824Z" fill="#CDCDCD"/>
<path d="M128.4 21.2798C127.76 21.2798 127.28 21.7598 127.28 22.3998C127.28 23.0398 127.76 23.5198 128.4 23.5198C129.04 23.5198 129.52 22.9598 129.52 22.3998C129.52 21.7598 129.04 21.2798 128.4 21.2798Z" fill="#CDCDCD"/>
<path d="M133.28 21.2798C132.64 21.2798 132.16 21.8398 132.16 22.3998C132.16 23.0398 132.64 23.5198 133.28 23.5198C133.92 23.5198 134.4 23.0398 134.4 22.3998C134.4 21.7598 133.92 21.2798 133.28 21.2798Z" fill="#CDCDCD"/>
<path d="M120.639 20.8799C120.079 20.8799 119.599 21.2799 119.359 21.8399V21.9199H121.919L121.839 21.8399C121.679 21.2799 121.199 20.8799 120.639 20.8799Z" fill="#CDCDCD"/>
<path d="M109.52 20.8799C108.72 20.8799 108 21.5199 108 22.3999C108 23.2799 108.64 23.9199 109.52 23.9199C110.32 23.9199 111.04 23.2799 111.04 22.3999C111.04 21.5199 110.4 20.8799 109.52 20.8799Z" fill="#CDCDCD"/>
<path d="M143.2 10.96C143.2 10.88 143.2 10.72 143.2 10.64C143.2 10.4 143.2 10.16 143.12 9.92C143.04 9.68 143.04 9.44 142.88 9.28C142.8 9.04 142.64 8.88 142.48 8.72C142.32 8.56 142.08 8.4 141.92 8.32C141.68 8.24 141.44 8.16 141.2 8.08C140.96 8 140.72 8 140.48 8C140.4 8 140.24 8 140.16 8C140 8 139.92 8 139.76 8H108.24C108.08 8 108 8 107.84 8C107.76 8 107.6 8 107.52 8C107.28 8 107.04 8 106.8 8.08C106.56 8.16 106.32 8.16 106.08 8.32C105.84 8.4 105.68 8.56 105.52 8.72C105.36 8.88 105.2 9.04 105.12 9.28C105.04 9.52 104.96 9.68 104.88 9.92C104.8 10.16 104.8 10.4 104.8 10.64C104.8 10.72 104.8 10.88 104.8 10.96C104.8 11.12 104.8 11.2 104.8 11.36V28.64C104.8 28.8 104.8 28.88 104.8 29.04C104.8 29.12 104.8 29.28 104.8 29.36C104.8 29.6 104.8 29.84 104.88 30.08C104.96 30.32 104.96 30.56 105.12 30.72C105.2 30.96 105.36 31.12 105.52 31.28C105.68 31.44 105.92 31.6 106.08 31.68C106.32 31.76 106.56 31.84 106.8 31.92C107.04 32 107.28 32 107.52 32C107.6 32 107.76 32 107.84 32C108 32 108.08 32 108.24 32H139.76C139.92 32 140 32 140.16 32C140.24 32 140.4 32 140.48 32C140.72 32 140.96 32 141.2 31.92C141.44 31.84 141.68 31.84 141.92 31.68C142.16 31.6 142.32 31.44 142.48 31.28C142.64 31.12 142.8 30.96 142.88 30.72C142.96 30.48 143.04 30.32 143.12 30.08C143.2 29.84 143.2 29.6 143.2 29.36C143.2 29.28 143.2 29.12 143.2 29.04C143.2 28.88 143.2 28.8 143.2 28.64V11.36C143.2 11.2 143.2 11.12 143.2 10.96ZM125.68 12.96C127.04 12.96 128.4 12.96 129.84 12.96C130.4 12.96 130.72 13.44 130.64 13.92C130.64 14.08 130.56 14.16 130.48 14.32C129.84 15.44 129.2 16.56 128.56 17.68C128.56 17.76 128.48 17.76 128.48 17.84C128.08 18.32 127.44 18.32 127.12 17.76C126.88 17.28 126.72 17.12 126.48 16.64C126.48 16.64 126.4 16.56 126.4 16.48C126.72 16.24 127.12 16.08 127.44 15.84C127.6 16.08 127.52 16 127.68 16.16C127.76 16.32 127.92 16.32 128 16.16C128.32 15.6 128.72 14.96 129.04 14.4C129.12 14.24 129.12 14.16 128.88 14.16C128.16 14.16 127.52 14.16 126.8 14.16C126.56 14.16 126.56 14.24 126.64 14.48C126.72 14.64 126.72 14.64 126.8 14.8C126.4 15.04 126.08 15.2 125.76 15.44C125.52 15.04 125.52 14.96 125.28 14.64C125.2 14.48 125.04 14.32 124.96 14.08C124.64 13.6 125.04 12.96 125.68 12.96ZM111.76 24.48H111.04V23.92L110.96 24C110.64 24.24 110.16 24.56 109.52 24.56C108.96 24.56 108.4 24.32 108 23.92C107.6 23.52 107.36 22.96 107.36 22.4C107.36 21.84 107.6 21.28 108 20.88C108.4 20.48 108.96 20.24 109.52 20.24C110.08 20.24 110.64 20.56 110.96 20.8L111.04 20.88V20.32H111.76V24.48ZM115.12 18.32H114.4C114 18.32 113.68 18.64 113.68 19.04V20.24H115.04V20.88H113.68V24.4H112.96V20.88H112.32V20.24H112.96V19.04C112.96 18.32 113.6 17.68 114.32 17.68H115.2L115.12 18.32ZM117.68 24.48C116.96 24.48 116.32 23.84 116.32 23.12V20.96H115.68V20.32H116.32V17.76H117.04V20.32H118.4V20.96H117.04V23.12C117.04 23.52 117.36 23.84 117.76 23.84H118.48L118.64 24.48H117.68ZM122.64 22.56H119.36V22.64C119.44 23.36 120 23.92 120.64 23.92C121.04 23.92 121.44 23.76 121.68 23.52L122.24 23.84C122.08 24 121.92 24.16 121.76 24.24C121.44 24.4 121.04 24.56 120.64 24.56C120.08 24.56 119.6 24.32 119.2 23.92C118.88 23.52 118.64 23.12 118.64 22.64C118.64 22.56 118.64 22.48 118.64 22.48C118.64 22.32 118.64 22.16 118.72 22C118.8 21.6 118.96 21.28 119.28 20.96C119.68 20.56 120.16 20.32 120.72 20.32C121.28 20.32 121.76 20.56 122.16 20.96C122.4 21.28 122.64 21.6 122.72 22C122.64 22.24 122.64 22.4 122.64 22.56ZM125.44 20.88C124.64 20.88 124.08 21.52 124.08 22.24V24.48H123.36V20.32H124V20.8L124.08 20.72C124.32 20.48 125.04 20.24 125.52 20.24L125.44 20.88ZM125.28 18.88C124.72 18.88 123.84 18.88 123.84 18.88V17.68C123.84 17.68 124 17.68 124.24 17.68C124.48 17.68 124.48 17.6 124.4 17.44C124.08 16.88 123.76 16.24 123.36 15.68C123.28 15.52 123.12 15.52 123.04 15.68C122.72 16.24 122.32 16.88 122 17.44C121.92 17.68 121.92 17.76 122.16 17.76C122.4 17.76 122.56 17.76 122.56 17.76C122.56 17.76 122.56 18.56 122.56 18.96C122.16 18.96 121.28 18.96 121.04 18.96C120.4 18.96 120.08 18.32 120.4 17.76C121.04 16.56 121.76 15.36 122.48 14.24C122.72 13.76 123.36 13.68 123.68 14.08C123.76 14.16 123.84 14.24 123.92 14.4C124.56 15.52 125.2 16.64 125.84 17.68C125.84 17.76 125.92 17.84 125.92 17.84C126.24 18.32 125.84 18.88 125.28 18.88ZM130 24C129.6 24.4 129.04 24.64 128.4 24.64C128 24.64 127.68 24.48 127.36 24.24H127.28V26.72L126.16 27.04V20.24H127.28V20.56L127.36 20.48C127.68 20.16 128.08 20.08 128.4 20.08C128.96 20.08 129.52 20.32 130 20.72C130.4 21.12 130.64 21.68 130.64 22.32C130.64 22.96 130.4 23.52 130 24ZM135.52 24.56H134.4V24.24L134.32 24.32C134 24.64 133.6 24.72 133.28 24.72C132.72 24.72 132.16 24.48 131.68 24.08C131.28 23.68 131.04 23.12 131.04 22.48C131.04 21.92 131.28 21.36 131.68 20.88C132.08 20.48 132.64 20.24 133.28 20.24C133.68 20.24 134 20.4 134.32 20.64H134.4V20.24H135.52V24.56ZM137.92 27.04H136.72L137.76 24.56L136 20.24H137.28L138.32 22.88L139.44 20.24H140.72L137.92 27.04Z" fill="#CDCDCD"/>
<path d="M225.279 17.92H223.199V17.2H225.199V16.4H223.199V15.76H225.279V15.04H222.319V18.64H225.279V17.92Z" fill="#CDCDCD"/>
<path d="M226.72 17.3601H227.68C228 17.3601 228.16 17.3601 228.32 17.5201C228.48 17.6801 228.48 18.0001 228.48 18.2401V18.7201H229.36V18.0001C229.36 17.6801 229.36 17.5201 229.2 17.3601C229.12 17.2801 228.96 17.1201 228.8 17.0401C229.04 16.9601 229.44 16.6401 229.44 16.0801C229.44 15.6801 229.28 15.4401 228.96 15.2801C228.64 15.1201 228.32 15.1201 227.92 15.1201H225.92V18.8001H226.8V17.3601H226.72ZM226.72 15.7601H227.84C228 15.7601 228.16 15.7601 228.24 15.8401C228.32 15.9201 228.4 16.0001 228.4 16.1601C228.4 16.3201 228.32 16.4801 228.24 16.4801C228.08 16.5601 228 16.5601 227.84 16.5601H226.8V15.7601H226.72Z" fill="#CDCDCD"/>
<path d="M227.76 21.3599H224.96L223.84 22.5599L222.8 21.3599H219.2V25.0399H222.64L223.76 23.8399L224.88 25.0399H226.56V23.8399H227.68C228.48 23.8399 229.2 23.5999 229.2 22.6399C229.2 21.6799 228.4 21.3599 227.76 21.3599ZM222.24 24.2399H220.08V23.5199H222V22.7999H220.08V22.1599H222.24L223.2 23.1999L222.24 24.2399ZM225.76 24.6399L224.4 23.1999L225.76 21.7599V24.6399ZM227.76 23.0399H226.64V22.0799H227.76C228.08 22.0799 228.32 22.2399 228.32 22.5599C228.24 22.8799 228.08 23.0399 227.76 23.0399Z" fill="#CDCDCD"/>
<path d="M232.96 18.64H234L234.32 17.84H236.16L236.48 18.64H238.24V15.92L239.92 18.64H241.2V14.96H240.32V17.6L238.8 15.04H237.44V18.48L235.92 15.04H234.64L233.44 17.92H233.04C232.8 17.92 232.56 17.84 232.4 17.76C232.24 17.6 232.16 17.28 232.16 16.88C232.16 16.48 232.24 16.24 232.4 16.08C232.56 15.92 232.72 15.84 233.04 15.84H233.84V15.04H232.96C232.32 15.04 231.92 15.2 231.6 15.44C231.2 15.84 231.12 16.32 231.12 16.88C231.12 17.52 231.28 18 231.6 18.24C232 18.56 232.56 18.64 232.96 18.64ZM235.28 15.6L235.92 17.04H234.72L235.28 15.6Z" fill="#CDCDCD"/>
<path d="M230.8 15.04H229.92V18.72H230.8V15.04Z" fill="#CDCDCD"/>
<path d="M219.52 18.64L220.8 15.76V18.64H221.68V14.96H220.24L219.2 17.52L218.08 15.04H216.64V18.48L215.12 15.04H213.76L212.16 18.72H213.12L213.44 17.92H215.28L215.6 18.72H217.36V15.84L218.64 18.72H219.52V18.64ZM213.84 17.12L214.4 15.6L214.96 17.04H213.84V17.12Z" fill="#CDCDCD"/>
<path d="M242.48 22.7999H242C241.84 22.7999 241.76 22.7999 241.68 22.7199C241.6 22.6399 241.52 22.5599 241.52 22.4799C241.52 22.3999 241.52 22.2399 241.68 22.2399C241.76 22.1599 241.84 22.1599 242 22.1599H243.6V21.3599H241.84C240.88 21.3599 240.56 21.9199 240.56 22.4799C240.56 23.5999 241.6 23.5999 242.4 23.5999C242.56 23.5999 242.64 23.5999 242.72 23.6799C242.8 23.7599 242.8 23.8399 242.8 23.9199C242.8 23.9999 242.72 24.0799 242.72 24.1599C242.64 24.2399 242.56 24.2399 242.4 24.2399H240.72V25.0399H242.4C243.28 25.0399 243.76 24.6399 243.76 23.9199C243.76 23.5199 243.68 23.2799 243.52 23.1199C243.28 22.8799 242.96 22.7999 242.48 22.7999Z" fill="#CDCDCD"/>
<path d="M233.68 24.9599H236.56V24.2399H234.56V23.5199H236.56V22.7199H234.56V22.0799H236.56V21.3599H233.68V24.9599Z" fill="#CDCDCD"/>
<path d="M247.2 10.96C247.2 10.88 247.2 10.72 247.2 10.64C247.2 10.4 247.2 10.16 247.12 9.92C247.04 9.68 247.04 9.44 246.88 9.28C246.8 9.04 246.64 8.88 246.48 8.72C246.32 8.56 246.08 8.4 245.92 8.32C245.68 8.24 245.44 8.16 245.2 8.08C244.96 8 244.72 8 244.48 8C244.4 8 244.24 8 244.16 8C244 8 243.92 8 243.76 8H212.24C212.08 8 212 8 211.84 8C211.76 8 211.6 8 211.52 8C211.28 8 211.04 8 210.8 8.08C210.56 8.16 210.32 8.16 210.08 8.32C209.84 8.4 209.68 8.56 209.52 8.72C209.36 8.88 209.2 9.04 209.12 9.28C209.04 9.52 208.96 9.68 208.88 9.92C208.8 10.16 208.8 10.4 208.8 10.64C208.8 10.72 208.8 10.88 208.8 10.96C208.8 11.12 208.8 11.2 208.8 11.36V28.64C208.8 28.8 208.8 28.88 208.8 29.04C208.8 29.12 208.8 29.28 208.8 29.36C208.8 29.6 208.8 29.84 208.88 30.08C208.96 30.32 208.96 30.56 209.12 30.72C209.2 30.96 209.36 31.12 209.52 31.28C209.68 31.44 209.92 31.6 210.08 31.68C210.32 31.76 210.56 31.84 210.8 31.92C211.04 32 211.28 32 211.52 32C211.6 32 211.76 32 211.84 32C212 32 212.08 32 212.24 32H243.76C243.92 32 244 32 244.16 32C244.24 32 244.4 32 244.48 32C244.72 32 244.96 32 245.2 31.92C245.44 31.84 245.68 31.84 245.92 31.68C246.16 31.6 246.32 31.44 246.48 31.28C246.64 31.12 246.8 30.96 246.88 30.72C246.96 30.48 247.04 30.32 247.12 30.08C247.2 29.84 247.2 29.6 247.2 29.36C247.2 29.28 247.2 29.12 247.2 29.04C247.2 28.88 247.2 28.8 247.2 28.64V11.36C247.2 11.2 247.2 11.12 247.2 10.96ZM218.16 18.96L218.08 18.72C218.08 19.04 217.84 19.36 217.44 19.36H215.68C215.44 19.36 215.2 19.2 215.12 18.96L214.96 18.48H213.92L213.76 18.96C213.68 19.2 213.44 19.36 213.2 19.36H212.24C212 19.36 211.84 19.28 211.76 19.12C211.68 18.96 211.6 18.72 211.68 18.56L213.28 14.88C213.36 14.56 213.52 14.4 213.76 14.4H215.04C215.28 14.4 215.52 14.56 215.6 14.8L215.92 15.6V15.04C215.92 14.72 216.16 14.4 216.56 14.4H218C218.24 14.4 218.48 14.56 218.56 14.72L219.12 16L219.68 14.8C219.76 14.56 220 14.4 220.24 14.4H221.68C221.84 14.4 221.92 14.48 222 14.48C222.08 14.4 222.16 14.4 222.32 14.4H225.28C225.36 14.4 225.52 14.48 225.6 14.48C225.68 14.4 225.76 14.4 225.92 14.4H227.92C228.48 14.4 228.88 14.4 229.28 14.64C229.36 14.64 229.36 14.72 229.36 14.72C229.44 14.56 229.68 14.4 229.92 14.4H230.8C231.12 14.4 231.36 14.64 231.36 14.88C231.76 14.56 232.32 14.4 233.04 14.4H233.92C234.08 14.4 234.16 14.48 234.32 14.56C234.4 14.48 234.56 14.4 234.72 14.4H236C236.24 14.4 236.48 14.56 236.56 14.8L236.88 15.52V15.04C236.88 14.72 237.12 14.4 237.52 14.4H238.88C239.12 14.4 239.28 14.48 239.36 14.72L239.76 15.44V15.04C239.76 14.72 240 14.4 240.4 14.4H241.28C241.6 14.4 241.92 14.64 241.92 15.04V18.72C241.92 19.04 241.68 19.36 241.28 19.36H240C239.76 19.36 239.6 19.28 239.44 19.04L238.88 18.16V18.72C238.88 19.04 238.64 19.36 238.24 19.36H236.48C236.24 19.36 236 19.2 235.92 18.96L235.76 18.48H234.72L234.56 18.96C234.48 19.2 234.24 19.36 234 19.36H232.96C232.56 19.36 231.84 19.28 231.36 18.88C231.28 19.12 231.04 19.36 230.8 19.36H229.92C229.84 19.36 229.76 19.36 229.68 19.28C229.6 19.36 229.52 19.36 229.44 19.36H228.56C228.24 19.36 227.92 19.12 227.92 18.72V18.24V18.16C227.92 18.08 227.92 18 227.92 18C227.84 18 227.84 18 227.76 18H227.44V18.72C227.44 19.04 227.2 19.36 226.8 19.36H225.92C225.84 19.36 225.68 19.36 225.6 19.28C225.52 19.36 225.44 19.36 225.28 19.36H222.32C222.16 19.36 222.08 19.28 222 19.28C221.92 19.36 221.76 19.36 221.68 19.36H220.8C220.48 19.36 220.16 19.12 220.16 18.72L220.08 18.96C220 19.2 219.76 19.28 219.52 19.28H218.72C218.48 19.28 218.32 19.12 218.16 18.96ZM242.4 25.6H240.72C240.48 25.6 240.24 25.44 240.16 25.2C239.84 25.44 239.36 25.6 238.88 25.6H237.2C237.12 25.6 237.04 25.6 236.96 25.52C236.72 25.6 236.64 25.6 236.56 25.6H233.6C233.52 25.6 233.44 25.6 233.36 25.52C233.28 25.6 233.2 25.6 233.12 25.6H232.24C231.92 25.6 231.6 25.36 231.6 24.96V24.4C231.6 24.32 231.6 24.24 231.6 24.24C231.52 24.24 231.52 24.24 231.44 24.24H231.12V24.96C231.12 25.28 230.88 25.6 230.48 25.6H229.6C229.28 25.6 228.96 25.36 228.96 24.96V24C228.64 24.16 228.24 24.32 227.6 24.32H227.2V24.96C227.2 25.28 226.96 25.6 226.56 25.6H224.88C224.72 25.6 224.56 25.52 224.4 25.36L223.76 24.64L223.12 25.36C223.04 25.52 222.88 25.52 222.64 25.52H219.2C218.88 25.52 218.56 25.28 218.56 24.88V21.2C218.56 20.88 218.8 20.56 219.2 20.56H222.72C222.88 20.56 223.04 20.64 223.2 20.72L223.84 21.44L224.48 20.72C224.56 20.56 224.72 20.56 224.96 20.56H227.76C228.4 20.56 228.8 20.72 229.12 20.88C229.2 20.64 229.44 20.56 229.68 20.56H231.68C232.16 20.56 232.56 20.56 233.04 20.8C233.12 20.8 233.12 20.88 233.12 20.88C233.2 20.72 233.44 20.56 233.68 20.56H236.64C236.88 20.56 237.04 20.72 237.2 20.88C237.52 20.72 237.84 20.56 238.32 20.56H240C240.24 20.56 240.48 20.72 240.56 20.96C240.88 20.72 241.28 20.56 241.84 20.56H243.6C243.92 20.56 244.24 20.8 244.24 21.2V22C244.24 22.24 244.16 22.4 244 22.48C244.32 22.8 244.4 23.2 244.4 23.68C244.4 24.96 243.6 25.6 242.4 25.6Z" fill="#CDCDCD"/>
<path d="M238.96 22.7999H238.48C238.32 22.7999 238.24 22.7999 238.16 22.7199C238.08 22.6399 238 22.5599 238 22.4799C238 22.3999 238 22.2399 238.16 22.2399C238.24 22.1599 238.32 22.1599 238.48 22.1599H240.08V21.3599H238.32C237.44 21.3599 237.04 21.9199 237.04 22.4799C237.04 23.5999 238.08 23.5999 238.88 23.5999C239.04 23.5999 239.12 23.5999 239.2 23.6799C239.28 23.7599 239.28 23.8399 239.28 23.9199C239.28 23.9999 239.2 24.0799 239.2 24.1599C239.12 24.2399 239.04 24.2399 238.88 24.2399H237.2V25.0399H238.88C239.76 25.0399 240.24 24.6399 240.24 23.9199C240.24 23.5199 240.16 23.2799 240 23.1199C239.76 22.8799 239.44 22.7999 238.96 22.7999Z" fill="#CDCDCD"/>
<path d="M233.2 22.3199C233.2 21.9199 233.04 21.6799 232.72 21.5199C232.4 21.3599 232.08 21.3599 231.68 21.3599H229.6V25.0399H230.48V23.6799H231.44C231.76 23.6799 231.92 23.6799 232.08 23.8399C232.24 23.9999 232.24 24.3199 232.24 24.5599V25.0399H233.12V24.3199C233.12 23.9999 233.12 23.8399 232.96 23.6799C232.88 23.5999 232.72 23.4399 232.56 23.3599C232.8 23.1999 233.2 22.8799 233.2 22.3199ZM232 22.7999C231.92 22.8799 231.76 22.8799 231.6 22.8799H230.56V22.0799H231.68C231.84 22.0799 232 22.0799 232.08 22.1599C232.16 22.2399 232.24 22.3199 232.24 22.4799C232.16 22.6399 232.16 22.7999 232 22.7999Z" fill="#CDCDCD"/>
<path d="M337.84 20.1602C337.52 20.1602 337.12 20.2402 336.88 20.4002C336.56 20.4802 336.32 20.6402 336.16 20.8802C336 21.1202 335.84 21.3602 335.84 21.6802C335.84 21.9202 335.84 22.0802 335.92 22.2402C336 22.4002 336.08 22.4802 336.16 22.6402C336.24 22.7202 336.4 22.8002 336.56 22.8802C336.72 22.9602 336.88 22.9602 336.96 22.9602C337.2 22.9602 337.44 22.9602 337.6 22.8802C337.76 22.8002 338 22.7202 338.08 22.6402C338.24 22.5602 338.32 22.4002 338.48 22.2402C338.56 22.0802 338.64 21.9202 338.72 21.8402C338.8 21.6802 338.8 21.6002 338.8 21.5202V20.2402H338.72C338.4 20.1602 338.08 20.1602 337.84 20.1602Z" fill="#CDCDCD"/>
<path d="M333.199 15.6002C332.959 15.4402 332.719 15.3602 332.479 15.2802C332.159 15.2002 331.919 15.2002 331.519 15.2002C331.279 15.2002 330.959 15.2002 330.799 15.2002C330.639 15.2002 330.479 15.2002 330.399 15.2802V19.0402C330.559 19.0402 330.639 19.1202 330.799 19.1202C330.959 19.1202 331.199 19.1202 331.359 19.1202C332.159 19.1202 332.719 18.9602 333.119 18.5602C333.519 18.2402 333.759 17.6802 333.759 17.0402C333.759 16.7202 333.679 16.4002 333.599 16.1602C333.599 16.0002 333.439 15.7602 333.199 15.6002Z" fill="#CDCDCD"/>
<path d="M351.2 10.96C351.2 10.88 351.2 10.72 351.2 10.64C351.2 10.4 351.2 10.16 351.12 9.92C351.04 9.68 351.04 9.44 350.88 9.28C350.8 9.04 350.64 8.88 350.48 8.72C350.32 8.56 350.08 8.4 349.92 8.32C349.68 8.24 349.44 8.16 349.2 8.08C348.96 8 348.72 8 348.48 8C348.4 8 348.24 8 348.16 8C348 8 347.92 8 347.76 8H316.24C316.08 8 316 8 315.84 8C315.76 8 315.6 8 315.52 8C315.28 8 315.04 8 314.8 8.08C314.56 8.16 314.32 8.16 314.08 8.32C313.84 8.4 313.68 8.56 313.52 8.72C313.36 8.88 313.2 9.04 313.12 9.28C313.04 9.52 312.96 9.68 312.88 9.92C312.8 10.16 312.8 10.4 312.8 10.64C312.8 10.72 312.8 10.88 312.8 10.96C312.8 11.12 312.8 11.2 312.8 11.36V28.64C312.8 28.8 312.8 28.88 312.8 29.04C312.8 29.12 312.8 29.28 312.8 29.36C312.8 29.6 312.8 29.84 312.88 30.08C312.96 30.32 312.96 30.56 313.12 30.72C313.2 30.96 313.36 31.12 313.52 31.28C313.68 31.44 313.92 31.6 314.08 31.68C314.32 31.76 314.56 31.84 314.8 31.92C315.04 32 315.28 32 315.52 32C315.6 32 315.76 32 315.84 32C316 32 316.08 32 316.24 32H347.76C347.92 32 348 32 348.16 32C348.24 32 348.4 32 348.48 32C348.72 32 348.96 32 349.2 31.92C349.44 31.84 349.68 31.84 349.92 31.68C350.16 31.6 350.32 31.44 350.48 31.28C350.64 31.12 350.8 30.96 350.88 30.72C350.96 30.48 351.04 30.32 351.12 30.08C351.2 29.84 351.2 29.6 351.2 29.36C351.2 29.28 351.2 29.12 351.2 29.04C351.2 28.88 351.2 28.8 351.2 28.64V11.36C351.2 11.2 351.2 11.12 351.2 10.96ZM323.28 14.4C323.68 14 324.24 13.68 324.8 13.68C324.88 14.24 324.64 14.88 324.24 15.28C323.92 15.68 323.28 16 322.72 16C322.64 15.36 322.96 14.72 323.28 14.4ZM326.4 22.32C326 22.96 325.52 23.52 324.88 23.52C324.24 23.52 324 23.12 323.2 23.12C322.4 23.12 322.16 23.52 321.52 23.52C320.88 23.52 320.32 22.88 319.92 22.24C319.04 21.04 318.4 18.8 319.28 17.28C319.76 16.56 320.48 16.08 321.36 16C322 16 322.64 16.4 323.04 16.4C323.44 16.4 324.16 15.84 324.96 15.92C325.28 15.92 326.24 16.08 326.8 16.88C326.72 16.88 325.68 17.52 325.68 18.8C325.68 20.32 327.04 20.8 327.04 20.8C327.04 20.96 326.88 21.6 326.4 22.32ZM334.4 18.24C334.24 18.56 334 18.88 333.68 19.12C333.36 19.36 333.04 19.52 332.64 19.68C332.24 19.76 331.84 19.84 331.36 19.84C331.04 19.84 330.72 19.84 330.4 19.76V23.52H329.6V14.72H329.68C329.92 14.64 330.24 14.64 330.56 14.64C330.88 14.64 331.2 14.56 331.6 14.56C332.16 14.56 332.64 14.64 333.04 14.72C333.44 14.88 333.76 15.04 334 15.28C334.24 15.52 334.4 15.76 334.48 16.08C334.64 16.4 334.64 16.72 334.64 17.12C334.64 17.44 334.56 17.84 334.4 18.24ZM338.88 23.44L338.8 22.72C338.72 22.8 338.72 22.8 338.64 22.88C338.48 23.04 338.4 23.12 338.16 23.2C338 23.28 337.76 23.36 337.6 23.44C337.36 23.52 337.12 23.52 336.88 23.52C336.56 23.52 336.24 23.44 336 23.36C335.76 23.28 335.52 23.12 335.36 22.96C335.2 22.8 335.12 22.56 335.04 22.4C334.96 22.16 334.96 22 334.96 21.76C334.96 21.04 335.28 20.4 336 20C336.64 19.6 337.6 19.44 338.8 19.44V19.36C338.8 19.2 338.8 19.04 338.72 18.8C338.72 18.56 338.64 18.4 338.56 18.24C338.48 18.08 338.32 17.92 338.08 17.76C337.92 17.6 337.6 17.6 337.28 17.6C337.04 17.6 336.72 17.68 336.48 17.68C336.24 17.76 336 17.84 335.76 18L335.68 18.08L335.44 17.44L335.52 17.36C335.84 17.2 336.08 17.04 336.4 16.96C336.72 16.88 337.04 16.8 337.36 16.8C337.84 16.8 338.24 16.88 338.48 17.04C338.8 17.2 339.04 17.36 339.2 17.68C339.36 17.92 339.52 18.24 339.52 18.48C339.6 18.8 339.6 19.04 339.6 19.36V21.84C339.6 22.08 339.6 22.32 339.6 22.56C339.6 22.8 339.6 23.04 339.68 23.28V23.36H338.88V23.44ZM344.16 21.76C344 22.24 343.76 22.72 343.6 23.04C343.44 23.44 343.28 23.76 343.12 24.08C342.96 24.4 342.8 24.72 342.64 24.96C342.48 25.2 342.24 25.44 342.08 25.6C341.84 25.84 341.6 26 341.36 26.08C341.12 26.16 341.04 26.24 340.96 26.24H340.88L340.56 25.52H340.64C340.8 25.44 340.96 25.36 341.2 25.28C341.36 25.2 341.6 25.04 341.76 24.88C341.92 24.72 342.08 24.56 342.24 24.24C342.4 24 342.56 23.68 342.72 23.36C342.8 23.2 342.8 23.12 342.8 23.12C342.8 23.12 342.8 23.04 342.72 22.88L340.4 16.96H341.28L342.96 21.04C343.04 21.28 343.12 21.52 343.2 21.76C343.28 21.92 343.28 22 343.28 22.08C343.28 22 343.36 21.84 343.36 21.76C343.44 21.52 343.52 21.28 343.6 21.04L345.12 16.96H346L344.16 21.76Z" fill="#CDCDCD"/>
<path d="M382.88 13.9198C382.4 13.2798 381.84 12.6398 381.36 11.9998C381.68 11.5198 382.08 11.2798 382.64 11.1998C383.2 11.1198 383.76 11.1198 384.24 11.1998C384.72 11.1998 385.12 11.3598 385.68 11.4398C385.6 11.3598 385.6 11.3598 385.6 11.2798C383.68 9.99976 381.52 9.19976 379.12 9.11976C376.72 9.03976 374.48 9.83976 372.48 11.0398C370.88 11.9998 369.36 13.1998 368 14.3998C367.84 14.5598 367.76 14.5598 367.52 14.4798C366.88 14.1598 366.64 13.5198 366.72 12.7198C366.8 12.3198 366.88 11.8398 366.96 11.4398C367.04 11.0398 367.12 10.6398 367.2 10.3198H367.12C367.04 10.3998 366.96 10.4798 366.96 10.5598C364.72 14.2398 364.24 18.0798 365.92 22.0798C366.32 23.1198 366.96 24.1598 367.6 25.0398C368.08 25.7598 368.8 26.3998 369.36 27.1198C369.68 27.5198 370.08 27.9198 370.4 28.3198C370.08 28.8798 369.68 29.1198 369.12 29.2798C368.48 29.4398 367.84 29.2798 367.2 29.1998C366.88 29.1198 366.56 29.0398 366.16 28.9598C366.24 29.1198 366.32 29.1998 366.48 29.1998C370.08 31.3598 373.84 31.8398 377.84 30.2398C379.28 29.6798 380.56 28.9598 381.68 27.8398C382.48 27.1198 383.28 26.3998 384.08 25.6798C385.04 26.9598 385.2 28.3998 384.72 29.9998C384.8 29.9998 384.8 29.9198 384.8 29.9198C384.88 29.8398 384.88 29.7598 384.96 29.6798C386.08 27.9998 386.64 26.0798 386.8 24.0798C386.96 21.8398 386.72 19.7598 385.68 17.7598C384.72 16.4798 383.84 15.1998 382.88 13.9198ZM383.28 21.8398C382.32 23.0398 381.36 24.3198 380.16 25.3598C378.8 26.4798 377.36 27.4398 375.6 27.7598C375.44 27.7598 375.28 27.8398 375.12 27.8398C374 27.9998 374 27.9998 373.2 27.1998C372.16 26.0798 371.04 25.0398 370.08 23.8398C369.04 22.5598 368.4 21.0398 368.16 19.3598C368.16 19.1198 368.16 18.9598 368.08 18.6398C368 18.3198 368.16 18.0798 368.48 17.7598C369.92 16.5598 371.28 15.1998 372.8 14.2398C374.24 13.2798 375.84 12.6398 377.6 12.5598C377.92 12.5598 378.08 12.6398 378.32 12.8798C379.52 14.4798 380.72 16.0798 381.84 17.6798C382.64 18.8798 383.2 20.1598 383.28 21.5998C383.36 21.5998 383.36 21.7598 383.28 21.8398Z" fill="#CDCDCD"/>
<path d="M415.44 15.1998C415.28 14.9598 415.12 14.7998 414.96 14.6398C414.08 13.7598 413.04 13.5198 411.84 13.4398C409.28 13.3598 407.44 14.5598 406.64 16.9598C406.16 18.3198 406.16 19.6798 406.4 21.1198C406.8 23.4398 408.4 25.6798 411.2 25.8398C412.96 25.9998 414.4 25.5998 415.44 23.9998C415.44 24.6398 415.52 25.3598 415.44 25.9998C415.28 27.5998 414.48 28.4798 412.96 28.8798C412 29.1198 411.04 29.1198 410.08 28.8798C409.44 28.7198 408.8 28.4798 408.16 28.2398C407.92 28.7998 407.68 29.4398 407.44 29.9998C407.52 30.0798 407.52 30.0798 407.6 30.0798C409.36 30.9598 411.12 31.1998 413.04 30.8798C414.4 30.6398 415.6 30.1598 416.56 29.1998C417.6 28.0798 417.92 26.7198 417.92 25.2798C417.92 21.5198 417.92 17.6798 417.92 13.9198C417.92 13.8398 417.92 13.6798 417.92 13.5998C417.12 13.5998 416.4 13.5998 415.6 13.5998C415.44 14.2398 415.44 14.7198 415.44 15.1998ZM415.12 21.5998C414.8 22.7198 414.08 23.5198 412.88 23.7598C411.68 23.9998 410.56 23.7598 409.6 22.7998C408.88 21.9998 408.56 21.0398 408.48 19.9198C408.4 19.1998 408.48 18.4798 408.72 17.7598C409.2 16.2398 410.32 15.4398 411.92 15.4398C413.76 15.4398 414.8 16.3198 415.12 18.1598C415.2 18.6398 415.28 19.0398 415.28 19.7598C415.28 20.4798 415.28 20.9598 415.12 21.5998Z" fill="#CDCDCD"/>
<path d="M397.759 15.2799C397.199 14.6399 396.639 14.0799 395.839 13.7599C393.519 12.9599 390.319 13.5199 388.959 16.7999C388.079 18.8799 388.159 20.9599 388.959 23.0399C389.759 25.1999 391.359 26.3999 393.759 26.3999C395.359 26.3999 396.719 25.9199 397.679 24.4799C397.759 24.3999 397.839 24.2399 397.919 24.0799C397.919 24.7999 397.919 25.4399 397.919 26.0799C398.639 26.0799 399.439 26.0799 400.159 26.0799C400.159 20.3199 400.159 14.6399 400.159 8.87988C399.359 8.87988 398.639 8.87988 397.759 8.87988C397.759 10.9599 397.759 13.1199 397.759 15.2799ZM397.359 22.2399C396.799 23.5199 395.759 24.2399 394.399 24.2399C393.039 24.3199 391.999 23.6799 391.359 22.4799C390.879 21.6799 390.799 20.7199 390.799 19.9999C390.799 18.7199 391.039 17.5999 391.759 16.7199C393.119 15.0399 395.999 14.9599 397.119 17.1999C397.999 18.8799 398.079 20.5599 397.359 22.2399Z" fill="#CDCDCD"/>
<path d="M441.92 13.4398C440 13.3598 438.4 13.9998 437.12 15.4398C436 16.6398 435.6 18.1598 435.6 19.7598C435.52 22.3998 436.64 24.4798 438.96 25.6798C440.8 26.6398 442.72 26.6398 444.56 25.9198C445.28 25.6798 446 25.3598 446.64 24.7998C446.72 24.7198 446.8 24.5598 446.8 24.4798C446.56 23.9198 446.24 23.4398 445.92 22.8798C445.36 23.4398 444.72 23.7598 444.08 23.9998C442.56 24.5598 441.04 24.4798 439.68 23.5198C438.56 22.7198 438.16 21.5998 438.08 20.3198C441.12 20.3198 444.08 20.3198 447.04 20.3198C447.04 19.5198 447.12 18.7998 447.04 17.9998C446.64 15.7598 445.12 13.5198 441.92 13.4398ZM444.56 18.3998C442.4 18.3998 440.24 18.3998 438.08 18.3998C438.32 16.2398 440.4 14.8798 442.4 15.3598C443.76 15.7598 444.64 16.9598 444.56 18.3998Z" fill="#CDCDCD"/>
<path d="M434.32 22.6396C434.16 22.7996 434.08 22.8796 433.92 22.9596C432.4 24.1596 430.8 24.6396 428.88 23.9996C427.2 23.4396 426.16 21.8396 426.16 19.9196C426.08 16.9596 428.64 14.8796 431.52 15.5996C432.4 15.8396 433.2 16.1596 433.84 16.8796C434.24 16.3196 434.56 15.7596 434.96 15.1996C434.56 14.8796 434.24 14.5596 433.84 14.3196C432.32 13.4396 430.72 13.1996 429.04 13.5196C425.68 14.1596 423.52 16.9596 423.76 20.3996C423.92 22.1596 424.56 23.5996 425.84 24.7996C427.6 26.3196 429.6 26.6396 431.76 26.2396C432.96 25.9996 434.08 25.4396 435.04 24.6396C435.12 24.5596 435.2 24.3996 435.2 24.3196C434.96 23.7596 434.64 23.1996 434.32 22.6396Z" fill="#CDCDCD"/>
<path d="M463.12 23.9998C462.08 23.9198 461.36 23.3598 461.04 22.3998C460.96 22.0798 460.88 21.7598 460.88 21.4398C460.88 19.6798 460.88 17.8398 460.88 16.0798C460.88 15.9998 460.88 15.9198 460.88 15.7598C461.84 15.7598 462.8 15.7598 463.76 15.7598C463.76 15.1198 463.76 14.4798 463.76 13.8398C462.8 13.8398 461.84 13.8398 460.8 13.8398C460.8 12.6398 460.8 11.4398 460.8 10.3198C460 10.3198 459.28 10.3198 458.48 10.3198C458.48 11.5198 458.48 12.6398 458.48 13.8398C457.92 13.8398 457.36 13.8398 456.88 13.8398C456.88 14.4798 456.88 15.1198 456.88 15.7598C457.44 15.7598 457.92 15.7598 458.48 15.7598C458.48 15.9198 458.48 15.9998 458.48 16.1598C458.48 17.6798 458.48 19.1198 458.48 20.6398C458.48 21.1998 458.48 21.8398 458.56 22.3998C458.72 23.5998 459.2 24.7198 460.24 25.3598C461.36 26.0798 462.64 26.2398 463.92 26.0798C463.92 26.0798 463.92 26.0798 464 25.9998C464 25.3598 464 24.6398 464 23.9998C463.76 23.9998 463.44 24.0798 463.12 23.9998Z" fill="#CDCDCD"/>
<path d="M450.96 16.7196C450.96 15.7596 450.96 14.7196 450.96 13.7596C450.16 13.7596 449.44 13.7596 448.72 13.7596C448.72 17.8396 448.72 21.9996 448.72 26.0796C449.52 26.0796 450.24 26.0796 451.04 26.0796C451.04 25.9196 451.04 25.8396 451.04 25.6796C451.04 24.0796 451.04 22.5596 451.04 20.9596C451.04 20.1596 451.12 19.3596 451.44 18.5596C452 17.1996 452.88 16.1596 454.4 15.9196C454.72 15.8396 455.12 15.9196 455.44 15.9196C455.44 15.1996 455.44 14.3996 455.44 13.5996C453.12 13.3596 451.84 14.6396 450.96 16.7196Z" fill="#CDCDCD"/>
<path d="M402.16 26.0798C402.96 26.0798 403.68 26.0798 404.48 26.0798C404.48 21.9198 404.48 17.8398 404.48 13.7598C403.68 13.7598 402.96 13.7598 402.16 13.7598C402.16 17.8398 402.16 21.9198 402.16 26.0798Z" fill="#CDCDCD"/>
<path d="M419.68 25.9997C420.48 25.9997 421.2 25.9997 422 25.9997C422 21.9197 422 17.8397 422 13.6797C421.2 13.6797 420.48 13.6797 419.68 13.6797C419.68 17.8397 419.68 21.9197 419.68 25.9997Z" fill="#CDCDCD"/>
<path d="M422 8.87988C421.2 8.87988 420.4 8.87988 419.6 8.87988C419.6 9.67988 419.6 10.4799 419.6 11.2799C420.4 11.2799 421.2 11.2799 422 11.2799C422 10.4799 422 9.67988 422 8.87988Z" fill="#CDCDCD"/>
<path d="M404.48 8.87988C403.68 8.87988 402.88 8.87988 402.08 8.87988C402.08 9.59988 402.08 10.3199 402.08 11.0399C402.08 11.1199 402.08 11.1999 402.08 11.2799C402.88 11.2799 403.68 11.2799 404.48 11.2799C404.48 10.3999 404.48 9.59988 404.48 8.87988Z" fill="#CDCDCD"/>
<path d="M465.36 8.7998C464.4 8.7998 463.6 9.5998 463.6 10.5598C463.6 11.5998 464.4 12.3998 465.36 12.3998C466.4 12.3998 467.12 11.5998 467.12 10.6398C467.12 9.5998 466.4 8.7998 465.36 8.7998ZM465.36 11.9998C464.56 11.9998 463.92 11.3598 463.92 10.5598C463.92 9.7598 464.56 9.1198 465.36 9.1198C466.16 9.1198 466.8 9.7598 466.8 10.5598C466.8 11.3598 466.08 11.9998 465.36 11.9998Z" fill="#CDCDCD"/>
<path d="M465.84 10.4796C465.92 10.3996 466 10.2396 466 10.1596C466 9.99961 466 9.91961 465.92 9.83961C465.84 9.75961 465.84 9.67961 465.76 9.67961C465.68 9.67961 465.6 9.59961 465.52 9.59961C465.44 9.59961 465.36 9.59961 465.2 9.59961H464.72V11.5996H464.96V10.7196H465.28L465.84 11.5996H466.16L465.6 10.7196C465.6 10.6396 465.76 10.5596 465.84 10.4796ZM465.12 10.4796H464.88V9.83961H465.2C465.28 9.83961 465.28 9.83961 465.36 9.83961C465.44 9.83961 465.44 9.83961 465.52 9.91961C465.6 9.91961 465.6 9.99961 465.6 9.99961C465.6 10.0796 465.68 10.0796 465.68 10.1596C465.68 10.2396 465.68 10.3196 465.6 10.3196C465.6 10.3996 465.52 10.3996 465.44 10.3996C465.36 10.3996 465.28 10.3996 465.28 10.3996C465.28 10.4796 465.2 10.4796 465.12 10.4796Z" fill="#CDCDCD"/>
<path d="M72.48 20.6401C72.56 20.0801 72.88 18.6401 71.12 18.6401C69.52 18.6401 69.36 20.1601 69.36 20.4001C69.36 20.6401 69.28 22.1601 70.96 22.1601C71.36 22.1601 72 22.1601 72.16 22.0001L72.32 21.2801C72.16 21.2801 71.6 21.3601 71.2 21.3601C70.8 21.3601 70.16 21.3601 70.32 20.5601H72.48V20.6401ZM71.2 19.3601C71.6 19.3601 71.68 19.6801 71.6 20.0001H70.4C70.56 19.6001 70.88 19.3601 71.2 19.3601Z" fill="#CDCDCD"/>
<path d="M74.0796 19.1201L73.9996 18.8001H73.1996L72.5596 22.3201H73.5196L73.8396 20.7201C74.1596 19.6801 74.5596 19.7601 74.7996 19.7601L75.0396 18.8001C74.5596 18.7201 74.2396 18.8801 74.0796 19.1201Z" fill="#CDCDCD"/>
<path d="M77.1194 18.7998C77.4394 18.7998 77.5994 18.7998 77.8394 18.9598L78.4794 18.3198C78.2394 18.0798 77.9194 17.7598 77.1194 17.7598C76.4794 17.7598 75.2794 18.2398 74.9594 19.5198C74.4794 21.3598 75.5194 22.2398 76.5594 22.2398C77.1194 22.2398 77.4394 22.1598 77.7594 21.9998L77.4394 21.1198C76.4794 21.4398 75.7594 20.9598 75.9194 19.9198C76.0794 19.1198 76.7994 18.7998 77.1194 18.7998Z" fill="#CDCDCD"/>
<path d="M60.3196 18L59.1996 20.56L58.9596 18H57.4396L56.6396 22.24H57.5996L58.1596 19.12L58.3996 22.24H59.3596L60.7196 19.2L60.1596 22.24H61.1196L61.9196 18H60.3196Z" fill="#CDCDCD"/>
<path d="M63.4394 18.6401C63.1194 18.6401 62.7994 18.6401 62.1594 18.8001L61.9994 19.6001C62.2394 19.6001 62.8794 19.4401 63.1994 19.5201C63.5194 19.5201 63.9194 19.5201 63.7594 20.0001C63.5194 20.0001 61.7594 19.7601 61.5194 21.2001C61.4394 21.9201 61.9994 22.3201 62.5594 22.2401C63.0394 22.2401 63.1994 22.1601 63.3594 22.0001L63.5194 22.1601H64.3994L64.7994 20.2401C64.9594 19.8401 65.1194 18.6401 63.4394 18.6401ZM63.5994 21.0401C63.5194 21.3601 63.1194 21.6001 62.7994 21.4401C62.4794 21.2801 62.5594 20.9601 62.8794 20.7201C63.1994 20.4801 63.5194 20.6401 63.6794 20.6401L63.5994 21.0401Z" fill="#CDCDCD"/>
<path d="M67.1198 20.4002C66.9598 20.2402 66.6398 20.0802 66.3998 20.0002C66.2398 19.9202 66.0798 19.6002 66.3998 19.5202C66.6398 19.5202 67.1198 19.5202 67.3598 19.6002L67.5998 18.8802C67.1198 18.7202 66.7998 18.7202 66.6398 18.7202C66.4798 18.7202 65.3598 18.7202 65.1998 19.6002C65.0398 20.2402 65.2798 20.5602 65.5198 20.6402C65.9198 20.8002 66.0798 20.9602 66.3198 21.0402C66.5598 21.2002 66.5598 21.6002 66.1598 21.6002C65.9998 21.6002 65.3598 21.6802 64.8798 21.5202L64.7998 22.1602C65.2798 22.3202 65.5998 22.3202 65.9198 22.3202C66.1598 22.3202 67.2798 22.4002 67.4398 21.2802C67.5198 20.7202 67.2798 20.4802 67.1198 20.4002Z" fill="#CDCDCD"/>
<path d="M68.6401 20.9598L68.8801 19.5198H69.3601L69.5201 18.7198H69.0401L69.2001 17.7598H68.2401L67.6001 21.1198C67.4401 22.0798 68.1601 22.2398 68.4001 22.2398C68.6401 22.2398 68.8801 22.2398 69.1201 22.0798L69.2001 21.3598C68.6401 21.4398 68.6401 21.1998 68.6401 20.9598Z" fill="#CDCDCD"/>
<path d="M82.7202 19.0401L82.6402 18.7201H81.8402L81.2002 22.2401H82.1602L82.4802 20.6401C82.8002 19.6001 83.2002 19.6001 83.4402 19.6001L83.6802 18.6401C83.2002 18.7201 82.8802 18.8801 82.7202 19.0401Z" fill="#CDCDCD"/>
<path d="M83.5202 20.1598C83.2002 21.1998 83.8402 22.2398 84.5602 22.2398C84.8802 22.2398 85.2002 22.0798 85.4402 21.9198L85.6002 22.2398H86.6402L87.5202 17.7598H86.4802L86.2402 19.1198C86.0802 18.9598 85.9202 18.7198 85.5202 18.7198C84.8002 18.7198 84.0002 18.5598 83.5202 20.1598ZM85.6802 19.6798C85.7602 19.8398 85.8402 20.2398 85.7602 20.5598C85.6002 20.9598 85.3602 21.2798 85.0402 21.2798C84.7202 21.2798 84.4002 20.8798 84.5602 20.3998C84.7202 19.5998 85.3602 19.2798 85.6802 19.6798Z" fill="#CDCDCD"/>
<path d="M91.1998 10.96C91.1998 10.88 91.1998 10.72 91.1998 10.64C91.1998 10.4 91.1998 10.16 91.1198 9.92C91.0398 9.68 91.0398 9.44 90.8798 9.28C90.7998 9.04 90.6398 8.88 90.4798 8.72C90.3198 8.56 90.0798 8.4 89.9198 8.32C89.6798 8.24 89.4398 8.16 89.1998 8.08C88.9598 8 88.7198 8 88.4798 8C88.3998 8 88.2398 8 88.1598 8C87.9998 8 87.9198 8 87.7598 8H56.2398C56.0798 8 55.9998 8 55.8398 8C55.7598 8 55.5998 8 55.5198 8C55.2798 8 55.0398 8 54.7998 8.08C54.5598 8.16 54.3198 8.16 54.0798 8.32C53.8398 8.4 53.6798 8.56 53.5198 8.72C53.3598 8.88 53.1998 9.04 53.1198 9.28C53.0398 9.52 52.9598 9.68 52.8798 9.92C52.7998 10.16 52.7998 10.4 52.7998 10.64C52.7998 10.72 52.7998 10.88 52.7998 10.96C52.7998 11.12 52.7998 11.2 52.7998 11.36V28.64C52.7998 28.8 52.7998 28.88 52.7998 29.04C52.7998 29.12 52.7998 29.28 52.7998 29.36C52.7998 29.6 52.7998 29.84 52.8798 30.08C52.9598 30.32 52.9598 30.56 53.1198 30.72C53.1998 30.96 53.3598 31.12 53.5198 31.28C53.6798 31.44 53.9198 31.6 54.0798 31.68C54.3198 31.76 54.5598 31.84 54.7998 31.92C55.0398 32 55.2798 32 55.5198 32C55.5998 32 55.7598 32 55.8398 32C55.9998 32 56.0798 32 56.2398 32H87.7598C87.9198 32 87.9998 32 88.1598 32C88.2398 32 88.3998 32 88.4798 32C88.7198 32 88.9598 32 89.1998 31.92C89.4398 31.84 89.6798 31.84 89.9198 31.68C90.1598 31.6 90.3198 31.44 90.4798 31.28C90.6398 31.12 90.7998 30.96 90.8798 30.72C90.9598 30.48 91.0398 30.32 91.1198 30.08C91.1998 29.84 91.1998 29.6 91.1998 29.36C91.1998 29.28 91.1998 29.12 91.1998 29.04C91.1998 28.88 91.1998 28.8 91.1998 28.64V11.36C91.1998 11.2 91.1998 11.12 91.1998 10.96ZM78.6398 29.6C76.3198 29.6 74.2398 28.8 72.5598 27.44C73.8398 26.24 74.7998 24.72 75.2798 22.96H74.4798C73.9998 24.48 73.1198 25.84 71.9998 26.96C70.8798 25.84 69.9998 24.56 69.5198 22.96H68.7198C69.1998 24.64 70.1598 26.24 71.4398 27.44C69.7598 28.8 67.6798 29.6 65.3598 29.6C60.0798 29.6 55.7598 25.28 55.7598 20C55.7598 14.72 60.0798 10.4 65.3598 10.4C67.6798 10.4 69.7598 11.2 71.3598 12.56C70.0798 13.76 69.1998 15.28 68.6398 17.04H69.4398C69.9198 15.52 70.7998 14.16 71.9198 13.04C73.0398 14.16 73.9198 15.44 74.3998 17.04H75.1998C74.7198 15.28 73.7598 13.76 72.4798 12.56C74.1598 11.2 76.2398 10.4 78.5598 10.4C83.8398 10.4 88.1598 14.72 88.1598 20C88.1598 25.28 83.9198 29.6 78.6398 29.6Z" fill="#CDCDCD"/>
<path d="M79.8399 18.6401C79.5199 18.6401 79.1999 18.6401 78.5599 18.8001L78.3999 19.6001C78.6399 19.6001 79.2799 19.4401 79.5999 19.5201C79.9199 19.5201 80.3199 19.5201 80.1599 20.0001C79.9199 20.0001 78.1599 19.7601 77.9199 21.2001C77.8399 21.9201 78.4799 22.3201 78.9599 22.2401C79.4399 22.2401 79.5999 22.1601 79.7599 22.0001L79.9199 22.1601H80.7999L81.1999 20.2401C81.2799 19.8401 81.4399 18.6401 79.8399 18.6401ZM79.9199 21.0401C79.8399 21.3601 79.4399 21.6001 79.1199 21.4401C78.7999 21.2801 78.8799 20.9601 79.1999 20.7201C79.5199 20.4801 79.8399 20.6401 79.9999 20.6401L79.9199 21.0401Z" fill="#CDCDCD"/>
<path d="M169.359 19.8399C169.279 19.8399 168.879 19.9199 168.639 19.9199C168.399 19.9199 168.159 19.9999 167.999 20.0799C167.839 20.1599 167.679 20.2399 167.599 20.3999C167.519 20.5599 167.439 20.6399 167.439 20.8799C167.439 21.0399 167.519 21.1999 167.599 21.2799C167.759 21.3599 167.919 21.3599 168.159 21.3599C168.319 21.3599 168.479 21.3599 168.639 21.2799C168.799 21.1999 168.879 21.1199 169.039 21.1199C169.119 21.1199 169.199 20.9599 169.199 20.8799C169.279 20.6399 169.359 20.0799 169.359 20.0799C169.439 19.7599 169.439 19.8399 169.359 19.8399Z" fill="#CDCDCD"/>
<path d="M187.2 19.8399C187.12 19.8399 186.72 19.9199 186.48 19.9199C186.24 19.9199 186 19.9999 185.84 20.0799C185.68 20.1599 185.52 20.2399 185.44 20.3999C185.36 20.5599 185.28 20.6399 185.28 20.8799C185.28 21.0399 185.36 21.1999 185.44 21.2799C185.6 21.3599 185.76 21.3599 186 21.3599C186.16 21.3599 186.32 21.3599 186.48 21.2799C186.64 21.1999 186.72 21.1199 186.88 21.1199C186.96 21.1199 187.04 20.9599 187.04 20.8799C187.12 20.6399 187.2 20.0799 187.2 20.0799C187.28 19.7599 187.28 19.8399 187.2 19.8399Z" fill="#CDCDCD"/>
<path d="M181.119 16.7202H180.799C180.559 16.7202 180.399 16.8802 180.319 17.1202L179.999 18.3202C179.919 18.5602 180.079 18.7202 180.319 18.7202H180.559C181.119 18.7202 181.519 18.6402 181.759 18.4002C182.079 18.1602 182.239 17.8402 182.239 17.4402C182.239 17.2002 182.159 16.9602 181.919 16.8802C181.759 16.7202 181.519 16.7202 181.119 16.7202Z" fill="#CDCDCD"/>
<path d="M195.2 10.96C195.2 10.88 195.2 10.72 195.2 10.64C195.2 10.4 195.2 10.16 195.12 9.92C195.04 9.68 195.04 9.44 194.88 9.28C194.8 9.04 194.64 8.88 194.48 8.72C194.32 8.56 194.08 8.4 193.92 8.32C193.68 8.24 193.44 8.16 193.2 8.08C192.96 8 192.72 8 192.48 8C192.4 8 192.24 8 192.16 8C192 8 191.92 8 191.76 8H160.24C160.08 8 160 8 159.84 8C159.76 8 159.6 8 159.52 8C159.28 8 159.04 8 158.8 8.08C158.56 8.16 158.32 8.16 158.08 8.32C157.84 8.4 157.68 8.56 157.52 8.72C157.36 8.88 157.2 9.04 157.12 9.28C157.04 9.52 156.96 9.68 156.88 9.92C156.8 10.16 156.8 10.4 156.8 10.64C156.8 10.72 156.8 10.88 156.8 10.96C156.8 11.12 156.8 11.2 156.8 11.36V28.64C156.8 28.8 156.8 28.88 156.8 29.04C156.8 29.12 156.8 29.28 156.8 29.36C156.8 29.6 156.8 29.84 156.88 30.08C156.96 30.32 156.96 30.56 157.12 30.72C157.2 30.96 157.36 31.12 157.52 31.28C157.68 31.44 157.92 31.6 158.08 31.68C158.32 31.76 158.56 31.84 158.8 31.92C159.04 32 159.28 32 159.52 32C159.6 32 159.76 32 159.84 32C160 32 160.08 32 160.24 32H191.76C191.92 32 192 32 192.16 32C192.24 32 192.4 32 192.48 32C192.72 32 192.96 32 193.2 31.92C193.44 31.84 193.68 31.84 193.92 31.68C194.16 31.6 194.32 31.44 194.48 31.28C194.64 31.12 194.8 30.96 194.88 30.72C194.96 30.48 195.04 30.32 195.12 30.08C195.2 29.84 195.2 29.6 195.2 29.36C195.2 29.28 195.2 29.12 195.2 29.04C195.2 28.88 195.2 28.8 195.2 28.64V11.36C195.2 11.2 195.2 11.12 195.2 10.96ZM165.28 19.2C164.64 19.68 163.68 19.92 162.48 19.92H162.16C161.92 19.92 161.76 20.08 161.68 20.32L161.36 21.76C161.28 22 161.12 22.16 160.88 22.16H159.92C159.68 22.16 159.6 22 159.6 21.76L160.96 15.76C161.04 15.52 161.2 15.36 161.44 15.36H163.52C164 15.36 164.32 15.36 164.72 15.44C165.04 15.52 165.36 15.6 165.6 15.76C165.84 15.92 166 16.08 166.16 16.32C166.32 16.56 166.32 16.88 166.32 17.2C166.32 18.08 165.92 18.72 165.28 19.2ZM171.36 18.48C171.36 18.56 171.36 18.64 171.36 18.72L170.64 21.84C170.56 22 170.4 22.16 170.24 22.24H170.08C169.84 22.24 169.44 22.24 169.36 22.24C169.2 22.24 169.04 22.08 169.12 21.84V21.68C168.96 21.76 168.88 21.84 168.72 21.92C168.56 22 168.48 22.08 168.32 22.16C168.16 22.24 168 22.32 167.84 22.32C167.68 22.32 167.52 22.4 167.2 22.4C166.8 22.4 166.4 22.32 166.16 22.08C165.92 21.84 165.76 21.52 165.76 21.12C165.76 20.72 165.84 20.4 166.08 20.08C166.24 19.76 166.56 19.6 166.96 19.44C167.28 19.28 167.76 19.2 168.24 19.12C168.72 19.04 169.12 18.96 169.68 18.96C169.76 18.96 169.84 18.88 169.84 18.88C169.84 18.8 169.84 18.8 169.84 18.72C169.84 18.48 169.76 18.4 169.52 18.24C169.36 18.16 169.04 18.08 168.64 18.08C168.4 18.08 168 18.16 167.68 18.24C167.36 18.32 167.28 18.4 167.12 18.4C167.04 18.4 166.88 18.4 166.96 18.16L167.04 17.68C167.04 17.68 167.12 17.28 167.44 17.2C167.6 17.2 167.68 17.12 167.92 17.12C168.32 17.04 168.72 17.04 169.12 17.04C169.92 17.04 170.48 17.12 170.88 17.36C171.28 17.6 171.44 17.92 171.44 18.32C171.36 18.32 171.36 18.4 171.36 18.48ZM172.96 24.56H171.92C171.68 24.56 171.6 24.4 171.76 24.16L172.64 22.64C172.64 22.64 172.72 22.56 172.64 22.08C172.48 21.2 171.84 17.36 171.84 17.36C171.76 17.12 171.92 16.96 172.16 16.96H173.04C173.28 16.96 173.52 17.12 173.6 17.36C173.6 17.36 174 19.92 174 20C174 20.08 174.08 20.16 174.16 20C174.32 19.76 175.68 17.36 175.68 17.36C175.84 17.12 176.08 16.96 176.32 16.96C176.32 16.96 177.28 16.96 177.52 16.96C177.84 16.96 177.52 17.52 177.52 17.52L173.6 24.24C173.44 24.4 173.2 24.56 172.96 24.56ZM183.12 19.28C182.48 19.76 181.52 20 180.32 20H180C179.76 20 179.6 20.16 179.52 20.4L179.2 21.84C179.12 22.08 178.96 22.24 178.72 22.24H177.76C177.52 22.24 177.44 22.08 177.44 21.84L178.8 15.84C178.88 15.6 179.04 15.44 179.28 15.44H181.36C181.84 15.44 182.16 15.44 182.48 15.52C182.8 15.6 183.12 15.68 183.36 15.84C183.6 16 183.76 16.16 183.92 16.4C184.08 16.64 184.08 16.96 184.08 17.28C184.16 18.08 183.76 18.8 183.12 19.28ZM189.2 18.48C189.2 18.56 189.2 18.64 189.2 18.72L188.48 21.84C188.4 22 188.24 22.16 188.08 22.24H187.92C187.68 22.24 187.28 22.24 187.2 22.24C187.04 22.24 186.88 22.08 186.96 21.84V21.68C186.8 21.76 186.72 21.84 186.56 21.92C186.4 22 186.32 22.08 186.16 22.16C186 22.24 185.84 22.32 185.68 22.32C185.52 22.32 185.36 22.4 185.04 22.4C184.64 22.4 184.24 22.32 184 22.08C183.76 21.84 183.6 21.52 183.6 21.12C183.6 20.72 183.68 20.4 183.92 20.08C184.08 19.76 184.4 19.6 184.8 19.44C185.12 19.28 185.6 19.2 186.08 19.12C186.56 19.04 186.96 18.96 187.52 18.96C187.6 18.96 187.68 18.88 187.68 18.88C187.68 18.8 187.68 18.8 187.68 18.72C187.68 18.48 187.6 18.4 187.36 18.24C187.2 18.16 186.88 18.08 186.48 18.08C186.24 18.08 185.84 18.16 185.52 18.24C185.2 18.32 185.12 18.4 184.96 18.4C184.88 18.4 184.72 18.4 184.8 18.16V17.6C184.8 17.6 184.88 17.2 185.2 17.12C185.36 17.12 185.44 17.04 185.68 17.04C186.08 16.96 186.48 16.96 186.88 16.96C187.68 16.96 188.24 17.04 188.64 17.28C189.04 17.52 189.2 17.84 189.2 18.24C189.28 18.32 189.2 18.4 189.2 18.48ZM192.4 15.84L191.12 21.84C191.04 22 190.88 22.16 190.64 22.16H189.76C189.6 22.16 189.44 22 189.52 21.76C189.52 21.76 189.52 21.68 189.6 21.52L190.8 16.08C190.8 15.92 190.88 15.84 190.88 15.84C190.96 15.68 191.12 15.52 191.36 15.52H192.24C192.24 15.52 192.4 15.68 192.4 15.84Z" fill="#CDCDCD"/>
<path d="M163.279 16.6401H162.959C162.719 16.6401 162.559 16.8001 162.479 17.0401L162.159 18.3201C162.079 18.5601 162.239 18.7201 162.479 18.7201H162.719C163.279 18.7201 163.679 18.6401 163.999 18.4001C164.319 18.1601 164.479 17.8401 164.479 17.4401C164.479 17.2001 164.399 16.9601 164.159 16.8801C163.919 16.7201 163.679 16.6401 163.279 16.6401Z" fill="#CDCDCD"/>
<path d="M39.1998 10.96C39.1998 10.88 39.1998 10.72 39.1998 10.64C39.1998 10.4 39.1998 10.16 39.1198 9.92C39.0398 9.68 39.0398 9.44 38.8798 9.28C38.7998 9.04 38.6398 8.88 38.4798 8.72C38.3198 8.56 38.0798 8.4 37.9198 8.32C37.6798 8.24 37.4398 8.16 37.1998 8.08C36.9598 8 36.7198 8 36.4798 8C36.3998 8 36.2398 8 36.1598 8C35.9998 8 35.9198 8 35.7598 8H4.2398C4.0798 8 3.9998 8 3.8398 8C3.7598 8 3.5998 8 3.5198 8C3.2798 8 3.0398 8 2.7998 8.08C2.5598 8.16 2.3198 8.16 2.0798 8.32C1.8398 8.4 1.6798 8.56 1.5198 8.72C1.3598 8.88 1.1998 9.04 1.1198 9.28C1.0398 9.52 0.959805 9.68 0.879805 9.92C0.799805 10.16 0.799805 10.4 0.799805 10.64C0.799805 10.72 0.799805 10.88 0.799805 10.96C0.799805 11.12 0.799805 11.2 0.799805 11.36V28.64C0.799805 28.8 0.799805 28.88 0.799805 29.04C0.799805 29.12 0.799805 29.28 0.799805 29.36C0.799805 29.6 0.799805 29.84 0.879805 30.08C0.959805 30.32 0.959805 30.56 1.1198 30.72C1.1998 30.96 1.3598 31.12 1.5198 31.28C1.6798 31.44 1.9198 31.6 2.0798 31.68C2.3198 31.76 2.5598 31.84 2.7998 31.92C3.0398 32 3.2798 32 3.5198 32C3.5998 32 3.7598 32 3.8398 32C3.9998 32 4.0798 32 4.2398 32H35.7598C35.9198 32 35.9998 32 36.1598 32C36.2398 32 36.3998 32 36.4798 32C36.7198 32 36.9598 32 37.1998 31.92C37.4398 31.84 37.6798 31.84 37.9198 31.68C38.1598 31.6 38.3198 31.44 38.4798 31.28C38.6398 31.12 38.7998 30.96 38.8798 30.72C38.9598 30.48 39.0398 30.32 39.1198 30.08C39.1998 29.84 39.1998 29.6 39.1998 29.36C39.1998 29.28 39.1998 29.12 39.1998 29.04C39.1998 28.88 39.1998 28.8 39.1998 28.64V11.36C39.1998 11.2 39.1998 11.12 39.1998 10.96ZM3.9998 15.2V15.04H8.0798C8.63981 15.04 9.0398 15.28 9.19981 15.84L10.0798 20.08C9.19981 17.84 7.1198 16 3.9998 15.2ZM8.87981 24.72L6.6398 16.72C8.3198 17.84 9.7598 19.52 10.2398 20.72L10.4798 21.68L13.1198 15.2H15.9198L11.7598 24.72H8.87981ZM15.1198 24.8L16.8798 15.2H19.5198L17.7598 24.8H15.1198ZM22.2398 24.96C21.0398 24.96 19.9198 24.72 19.3598 24.4L19.7598 22.24L20.0798 22.4C20.9598 22.8 21.5198 22.88 22.5598 22.96C23.2798 22.96 24.0798 22.72 24.1598 22.08C24.1598 21.68 23.8398 21.36 22.7998 20.88C21.8398 20.4 20.4798 19.6 20.5598 18.24C20.5598 16.4 22.3998 15.12 24.9598 15.12C25.9998 15.12 26.7998 15.36 27.2798 15.52L26.8798 17.6L26.6398 17.52C26.1598 17.36 25.5198 17.12 24.7198 17.12C23.6798 17.12 23.1998 17.52 23.1998 17.92C23.1998 18.4 23.7598 18.64 24.6398 19.12C26.1598 19.84 26.7998 20.64 26.7998 21.76C26.7998 23.76 25.0398 25.04 22.2398 24.96ZM33.5998 24.96C33.5998 24.96 33.3598 23.84 33.2798 23.52C32.8798 23.52 30.2398 23.52 29.9198 23.52C29.8398 23.76 29.3598 24.96 29.3598 24.96H26.6398L30.5598 16.24C30.8798 15.6 31.2798 15.44 31.9198 15.44H33.9198L35.9198 25.04L33.5998 24.96Z" fill="#CDCDCD"/>
<path d="M32.0797 17.9199C31.9197 18.2399 31.6797 18.8799 31.7597 18.7999C31.7597 18.7999 30.8797 20.8799 30.7197 21.4399H32.8797C32.7997 20.9599 32.3197 18.6399 32.3197 18.6399L32.0797 17.9199Z" fill="#CDCDCD"/>
</svg>
