<svg width="54" height="80" viewBox="0 0 54 80" fill="none" xmlns="http://www.w3.org/2000/svg">
<rect width="54" height="80" fill="#0A1928"/>
<path d="M21.3333 51.6667C22.622 51.6667 23.6667 50.622 23.6667 49.3333C23.6667 48.0447 22.622 47 21.3333 47C20.0447 47 19 48.0447 19 49.3333C19 50.622 20.0447 51.6667 21.3333 51.6667Z" fill="white"/>
<path d="M33.0003 51.6667C34.289 51.6667 35.3337 50.622 35.3337 49.3333C35.3337 48.0447 34.289 47 33.0003 47C31.7117 47 30.667 48.0447 30.667 49.3333C30.667 50.622 31.7117 51.6667 33.0003 51.6667Z" fill="white"/>
<path d="M38.6003 33.4666C38.367 33.2333 38.017 33 37.667 33H22.5003V35.3333H36.0337L33.3503 42.45L22.267 43.5L19.0003 29.2666C18.8837 28.6833 18.417 28.3333 17.8337 28.3333H13.167V30.6666H16.9003L20.167 44.9C20.2837 45.4833 20.7503 45.8333 21.3337 45.8333H21.4503L34.2837 44.6666C34.7503 44.6666 35.1003 44.3166 35.217 43.9666L38.717 34.6333C38.9503 34.1666 38.8337 33.8166 38.6003 33.4666Z" fill="white"/>
<circle cx="36" cy="30" r="8" fill="#FFD200"/>
<path d="M32.54 30.692C32.54 33.32 33.8 35.132 36.008 35.132C38.204 35.132 39.464 33.32 39.464 30.692C39.464 28.064 38.204 26.252 36.008 26.252C33.8 26.252 32.54 28.064 32.54 30.692ZM34.316 30.692C34.316 28.976 34.82 27.764 36.008 27.764C37.184 27.764 37.688 28.976 37.688 30.692C37.688 32.408 37.184 33.62 36.008 33.62C34.82 33.62 34.316 32.408 34.316 30.692Z" fill="#0A1928"/>
</svg>
