<svg width="40" height="60" viewBox="0 0 40 60" fill="none" xmlns="http://www.w3.org/2000/svg">
<path d="M35 6.66669H5V10H35V6.66669Z" fill="white"/>
<path d="M35 18.3333H5V21.6666H35V18.3333Z" fill="white"/>
<path d="M35 30H5V33.3333H35V30Z" fill="white"/>
<path d="M8.804 56L11.226 48.636V56H13.186V45.948H10.372L8.062 53.102L5.738 45.948H2.882V56H4.814V48.636L7.236 56H8.804ZM18.0906 56.154C19.5606 56.154 20.8066 55.398 21.3386 54.054L19.6866 53.466C19.4626 54.18 18.8606 54.544 18.1046 54.544C17.1386 54.544 16.4526 53.872 16.3126 52.752H21.3806V52.178C21.3806 50.12 20.2046 48.496 18.0206 48.496C15.9346 48.496 14.4366 50.148 14.4366 52.318C14.4366 54.6 15.9206 56.154 18.0906 56.154ZM18.0066 50.064C18.9586 50.064 19.4206 50.694 19.4346 51.422H16.3826C16.6206 50.526 17.2226 50.064 18.0066 50.064ZM22.5405 56H24.5005V51.744C24.5005 50.778 25.1725 50.288 25.8585 50.288C26.6985 50.288 27.0345 50.876 27.0345 51.702V56H28.9945V51.142C28.9945 49.546 28.0565 48.496 26.5165 48.496C25.5785 48.496 24.9065 48.916 24.5005 49.392V48.636H22.5405V56ZM36.9639 48.636H35.0039V52.962C35.0039 53.914 34.3319 54.418 33.6459 54.418C32.8339 54.418 32.4699 53.886 32.4699 53.074V48.636H30.5099V53.508C30.5099 55.104 31.4899 56.154 33.0159 56.154C33.9539 56.154 34.5979 55.72 35.0039 55.244V56H36.9639V48.636Z" fill="white"/>
</svg>
