<svg width="165" height="49" viewBox="0 0 165 49" fill="none" xmlns="http://www.w3.org/2000/svg">
<g clip-path="url(#clip0_10569_3111)">
<path d="M64.7923 34.7559C63.0789 34.7559 62.0264 36.0576 62.0264 37.3674C62.0264 38.6773 62.9565 39.6047 64.3844 39.6047C66.0978 39.6047 67.1503 38.303 67.1503 36.9932C67.1503 35.6834 66.2202 34.7559 64.7923 34.7559Z" fill="#FFD200"/>
<path d="M28.3696 34.8115L26.5664 38.0576H29.1202L28.4838 34.8115H28.3696Z" fill="#FFD200"/>
<path d="M140.812 26.3105H19.3783C18.0729 26.3105 17.2325 27.0346 16.9959 28.3118L13.879 46.0637C13.6751 47.284 14.3441 48.0651 15.568 48.0651H137.001C138.315 48.0651 139.155 47.341 139.392 46.0637L142.501 28.3118C142.705 27.0915 142.036 26.3105 140.812 26.3105ZM138.021 45.9498C137.94 46.4705 137.589 46.7634 137.067 46.7634H74.7467L78.1491 27.6122H140.469C140.959 27.6122 141.22 27.9376 141.138 28.4257L138.021 45.9498Z" fill="#FFD200"/>
<path d="M90.7372 34.8361L91.1696 32.3629H81.5662L81.1338 34.8361H84.2996L83.0512 41.9629H86.3149L87.5632 34.8361H90.7372Z" fill="#FFD200"/>
<path d="M99.559 38.3753C100.938 37.7489 101.689 36.6831 101.689 35.3733C101.689 33.4858 100.187 32.355 97.6742 32.355H92.8276L91.1387 41.9631H94.2881L94.8103 38.8879H96.4748L97.9026 41.9631H101.183L99.4855 38.4079L99.559 38.3753ZM97.0622 36.8784H95.1938L95.6018 34.4865H97.2989C98.1229 34.4865 98.5717 34.8689 98.5717 35.5523C98.5717 36.195 98.0985 36.8784 97.0622 36.8784Z" fill="#FFD200"/>
<path d="M109.874 40.2546L110.102 41.9631H113.015L111.53 32.355H107.026L102.163 41.9631H105.321L106.161 40.2546H109.857H109.874ZM108.788 34.8363H109.172L109.604 38.1882H107.173L108.797 34.8363H108.788Z" fill="#FFD200"/>
<path d="M120.446 32.3629H116.097L114.408 41.9711H118.994C122.535 41.9711 125.105 39.7012 125.105 36.5772C125.105 34.0633 123.236 32.3711 120.446 32.3711V32.3629ZM118.847 39.6931H118.023L118.039 39.5955L118.92 34.6002H119.655C121.645 34.6002 121.947 35.9588 121.947 36.7724C121.947 38.79 120.389 39.6931 118.839 39.6931H118.847Z" fill="#FFD200"/>
<path d="M127.644 32.3629L125.955 41.9629H133.878L134.286 39.6361H129.57L129.806 38.2856H133.992L134.4 35.9507H130.214L130.443 34.6897H135.151L135.591 32.3629H127.644Z" fill="#FFD200"/>
<path d="M2.61924 7.28136L2.88034 5.80068C3.52492 2.1478 6.14402 0 11.1782 0C16.4736 0 19.3538 2.83932 18.7174 6.41085L18.342 8.55864H12.4103L12.8182 6.29695C13.0222 5.22305 12.2063 4.58847 11.0722 4.58847C9.8483 4.58847 9.12213 5.25559 8.95079 6.27254L8.80392 7.05356C8.59994 8.21695 8.97526 8.85153 10.3134 9.63254L14.2951 11.9837C16.3349 13.1715 17.3466 15.059 16.8244 17.9308L16.5062 19.7288C15.78 23.7885 13.3078 25.9932 8.21646 25.9932C3.12511 25.9932 -0.203841 23.3817 0.465214 19.5498L0.930289 16.9058H6.87019L6.37248 19.6881C6.1685 20.762 7.15576 21.3966 8.2083 21.3966C9.30979 21.3966 10.1012 20.762 10.3052 19.6556L10.5663 18.2319C10.7132 17.4753 10.4766 16.6942 9.57905 16.1736L5.5076 13.7654C2.79875 12.1708 2.12969 10.1125 2.6274 7.26509L2.61924 7.28136Z" fill="white"/>
<path d="M27.259 2.11493L24.4359 18.1014C24.2319 19.2892 24.8438 19.8993 25.774 19.8993C26.7041 19.8993 27.2019 19.2892 27.4058 18.1014L30.2289 2.11493H35.9322L33.1662 18.0444C32.4972 21.8193 30.3187 24.1054 25.57 24.1054C20.8214 24.1054 18.1207 21.7868 18.7652 18.0444L21.5312 2.11493H27.259Z" fill="white"/>
<path d="M46.6059 2.11493H38.3406L34.5303 23.8695H40.1193L41.4248 16.4743H45.2678C48.5559 16.4743 50.302 15.0261 50.8813 11.7149L51.6972 7.10205C52.3092 3.62001 49.9512 2.11493 46.6059 2.11493ZM46.0511 7.56578L45.3494 11.422C45.2351 12.1217 44.9169 12.4634 43.8644 12.4634H42.1183L43.2198 6.10951H44.9088C45.7247 6.10951 46.2143 6.66273 46.0429 7.55764L46.0511 7.56578Z" fill="white"/>
<path d="M50.709 23.8776L54.5193 2.11493H65.983L65.2242 6.55696H59.4393L58.7376 10.5841H63.8045L63.0212 15.0261H57.9544L57.1955 19.4356H62.9315L62.1482 23.8776H50.709Z" fill="white"/>
<path d="M76.4591 2.11513H68.3162L64.5059 23.8697H70.0052L71.5146 15.1646H73.1709C73.9869 15.1646 74.4764 15.7748 74.3377 16.6697L73.0893 23.8616H78.5886L79.7799 16.987C80.0981 15.0751 79.2577 13.6514 77.6585 13.0738C79.633 12.7565 80.6856 11.8534 81.0038 9.99852L81.526 7.03716C82.0808 3.87242 79.9512 2.10699 76.4591 2.10699V2.11513ZM75.9369 7.48462L75.4147 10.389C75.3005 11.0887 74.9496 11.4304 73.9053 11.4304H72.1918L73.122 6.11784H74.7783C75.5942 6.11784 76.1164 6.58157 75.9451 7.48462H75.9369Z" fill="white"/>
<path d="M91.0331 14.9699H96.5324L96.0102 17.9557C95.3411 21.7306 93.2198 24.1062 88.618 24.1062C84.0162 24.1062 81.1441 21.7876 81.8132 18.0126L83.5593 7.97332C84.2283 4.174 86.4068 1.87976 91.1228 1.87976C95.8389 1.87976 98.4253 4.25535 97.7563 8.03027L97.2341 10.9591H91.7348L92.2325 8.03027C92.4365 6.84247 91.8572 6.2323 90.927 6.2323C89.9969 6.2323 89.4747 6.86688 89.2707 8.06281L87.5246 17.9232C87.3207 19.1109 87.9326 19.7537 88.8627 19.7537C89.7929 19.7537 90.3151 19.1191 90.5191 17.9557L91.0412 14.9699H91.0331Z" fill="white"/>
<path d="M97.2578 23.8776L101.068 2.11493H106.771L105.286 10.5841H108.371L109.856 2.11493H115.559L111.749 23.8776H106.045L107.587 15.0261H104.503L102.961 23.8776H97.2578Z" fill="white"/>
<path d="M114.335 23.8776L118.145 2.11493H129.609L128.85 6.55696H123.065L122.364 10.5841H127.43L126.647 15.0261H121.58L120.822 19.4356H126.557L125.774 23.8776H114.335Z" fill="white"/>
<path d="M134.644 2.11493L127.17 23.8695H132.726L133.893 20.1841H138.111L137.965 23.8695H143.317L143.521 2.11493H134.644ZM138.25 16.2139H135.141L138.169 6.67086H138.601L138.25 16.2139Z" fill="white"/>
<path d="M158.297 0.203369H149.281L144.826 25.7573H150.88L152.365 17.1742H156.38C160.541 17.1742 162.695 15.4901 163.364 11.5769L164.294 6.06913C164.93 2.26981 162.23 0.211505 158.297 0.211505V0.203369ZM158.093 6.46778L157.253 11.3735C157.106 12.2115 156.673 12.5939 155.507 12.5939H153.181L154.552 4.79184H156.763C157.661 4.79184 158.305 5.36947 158.101 6.47591L158.093 6.46778Z" fill="white"/>
<path d="M31.0766 32.2977H26.5156L20.4941 42.0685H24.2147L25.2346 40.36H29.714L30.122 42.0685H33.3775L31.0848 32.2977H31.0766ZM26.5727 38.0658L28.3759 34.8197H28.5473L29.1837 38.0658H26.5646H26.5727Z" fill="#0A1928"/>
<path d="M45.0059 37.5697L45.9034 32.2897H42.5011L41.5138 37.7975C41.2772 39.1318 40.6408 39.6524 39.6535 39.6524C38.7233 39.6524 38.0217 39.1318 38.2583 37.8301L39.2211 32.2897H35.7942L34.8967 37.5372C34.399 40.4335 36.3817 42.3209 39.4577 42.3209C42.5337 42.3209 44.4837 40.6124 45.0141 37.5697H45.0059Z" fill="#0A1928"/>
<path d="M47.4766 34.9336H50.7892L49.5408 42.0685H52.9677L54.2161 34.9336H57.5369L58.0019 32.2977H47.9416L47.4766 34.9336Z" fill="#0A1928"/>
<path d="M64.9233 32.0387C60.8845 32.0387 58.6162 34.7641 58.6162 37.514C58.6162 40.2638 60.7702 42.3221 64.2869 42.3221C68.3257 42.3221 70.5939 39.5967 70.5939 36.8468C70.5939 34.097 68.4399 32.0387 64.9233 32.0387ZM64.4011 39.6617C62.9487 39.6617 62.0186 38.6448 62.0186 37.3756C62.0186 36.1065 63.063 34.7072 64.809 34.7072C66.2614 34.7072 67.1915 35.7241 67.1915 36.9933C67.1915 38.2624 66.1472 39.6617 64.4011 39.6617Z" fill="#0A1928"/>
</g>
<defs>
<clipPath id="clip0_10569_3111">
<rect width="164" height="48.0651" fill="white" transform="translate(0.382812)"/>
</clipPath>
</defs>
</svg>
