<svg width="24" height="24" viewBox="0 0 24 24" fill="none" xmlns="http://www.w3.org/2000/svg">
<path opacity="0.7" d="M16.0636 13.3633L14.8636 12.0449C15.3364 10.6267 15.0909 9.44819 14.1273 8.50936C13.1636 7.57054 12.1182 7.33084 10.9909 7.79026L9.79091 6.47191C10.1 6.25218 10.4455 6.09238 10.8273 5.99251C11.2091 5.89263 11.6 5.8427 12 5.8427C13.2909 5.8427 14.3864 6.33708 15.2864 7.32584C16.1864 8.31461 16.6364 9.5181 16.6364 10.9363C16.6364 11.3758 16.5864 11.8102 16.4864 12.2397C16.3864 12.6692 16.2455 13.0437 16.0636 13.3633ZM19.5818 17.2285L18.4909 16.03C19.3818 15.3109 20.1591 14.5069 20.8227 13.618C21.4864 12.7291 21.9727 11.8352 22.2818 10.9363C21.3727 8.7191 20.0091 6.96629 18.1909 5.6779C16.3727 4.38951 14.4 3.74532 12.2727 3.74532C11.5091 3.74532 10.7273 3.82522 9.92727 3.98502C9.12727 4.14482 8.5 4.33458 8.04545 4.55431L6.79091 3.14607C7.42727 2.82647 8.24091 2.54682 9.23182 2.30712C10.2227 2.06742 11.1909 1.94757 12.1364 1.94757C14.7364 1.94757 17.1136 2.76155 19.2682 4.38951C21.4227 6.01748 23 8.19975 24 10.9363C23.5273 12.2147 22.9182 13.3833 22.1727 14.4419C21.4273 15.5006 20.5636 16.4295 19.5818 17.2285ZM21.1636 24L16.5818 19.0562C15.9455 19.3358 15.2273 19.5506 14.4273 19.7004C13.6273 19.8502 12.8182 19.9251 12 19.9251C9.34545 19.9251 6.93636 19.1111 4.77273 17.4831C2.60909 15.8552 1.01818 13.6729 0 10.9363C0.363636 9.89763 0.868182 8.88389 1.51364 7.89513C2.15909 6.90637 2.94545 5.96255 3.87273 5.06367L0.436364 1.28839L1.58182 0L22.2273 22.6816L21.1636 24ZM4.99091 6.3221C4.31818 6.86142 3.66818 7.57054 3.04091 8.44944C2.41364 9.32834 1.96364 10.1573 1.69091 10.9363C2.61818 13.1536 4.01364 14.9064 5.87727 16.1948C7.74091 17.4831 9.85455 18.1273 12.2182 18.1273C12.8182 18.1273 13.4091 18.0874 13.9909 18.0075C14.5727 17.9276 15.0091 17.8077 15.3 17.6479L13.5545 15.7303C13.3545 15.8302 13.1091 15.9051 12.8182 15.9551C12.5273 16.005 12.2545 16.03 12 16.03C10.7273 16.03 9.63636 15.5406 8.72727 14.5618C7.81818 13.583 7.36364 12.3745 7.36364 10.9363C7.36364 10.6367 7.38636 10.3371 7.43182 10.0375C7.47727 9.73783 7.54545 9.46816 7.63636 9.22846L4.99091 6.3221Z" fill="#3B4753"/>
</svg>
